<svg id="visual" viewBox="0 0 900 600" width="900" height="600" xmlns="http://www.w3.org/2000/svg" xmlns:xlink="http://www.w3.org/1999/xlink" version="1.1"><rect x="0" y="0" width="900" height="600" fill="#4FACF7"></rect><defs><linearGradient id="grad1_0" x1="33.3%" y1="100%" x2="100%" y2="0%"><stop offset="20%" stop-color="#4facf7" stop-opacity="1"></stop><stop offset="80%" stop-color="#4facf7" stop-opacity="1"></stop></linearGradient></defs><defs><linearGradient id="grad2_0" x1="0%" y1="100%" x2="66.7%" y2="0%"><stop offset="20%" stop-color="#4facf7" stop-opacity="1"></stop><stop offset="80%" stop-color="#4facf7" stop-opacity="1"></stop></linearGradient></defs><g transform="translate(900, 600)"><path d="M-243.4 0C-243.3 -35.2 -243.3 -70.3 -224.8 -93.1C-206.4 -115.9 -169.5 -126.4 -145 -145C-120.4 -163.5 -108.2 -190.1 -86.1 -207.9C-64 -225.6 -32 -234.5 0 -243.4L0 0Z" fill="#2c6bc9"></path></g><g transform="translate(0, 0)"><path d="M243.4 0C225.7 28.1 208 56.2 192.2 79.6C176.3 103 162.4 121.6 147.8 147.8C133.2 174 117.9 207.7 93.1 224.8C68.4 242 34.2 242.7 0 243.4L0 0Z" fill="#2c6bc9"></path></g></svg>